# Blender v2.79 (sub 0) OBJ File: ''
# www.blender.org
mtllib halfSphere.mtl
o Sphere
v -0.027102 1.201725 -0.406056
v -0.027102 1.144820 -0.593649
v -0.027102 1.052410 -0.766536
v -0.027102 0.928047 -0.918072
v -0.027102 0.776510 -1.042435
v -0.027102 0.603624 -1.134845
v -0.027102 0.416031 -1.191751
v -0.027102 0.220940 -1.210966
v -0.027102 0.025850 -1.191751
v -0.027102 -0.610529 -0.766536
v 0.010959 1.201725 -0.402307
v 0.047556 1.144820 -0.586296
v 0.081285 1.052410 -0.755861
v 0.110848 0.928047 -0.904485
v 0.135110 0.776510 -1.026459
v 0.153138 0.603624 -1.117093
v 0.164240 0.416031 -1.172905
v 0.167989 0.220940 -1.191751
v 0.164240 0.025850 -1.172905
v 0.153139 -0.161743 -1.117093
v 0.135110 -0.334630 -1.026459
v 0.110848 -0.486167 -0.904485
v 0.081285 -0.610529 -0.755861
v 0.047556 -0.702939 -0.586296
v 0.010959 -0.759845 -0.402307
v 0.047556 1.201725 -0.391205
v 0.119345 1.144820 -0.564519
v 0.185506 1.052410 -0.724245
v 0.243497 0.928047 -0.864247
v 0.291088 0.776510 -0.979143
v 0.326452 0.603624 -1.064519
v 0.348229 0.416031 -1.117093
v 0.355582 0.220940 -1.134845
v 0.348229 0.025850 -1.117093
v 0.326452 -0.161743 -1.064519
v 0.291088 -0.334630 -0.979143
v 0.243497 -0.486167 -0.864247
v 0.185506 -0.610529 -0.724245
v 0.119345 -0.702939 -0.564519
v 0.047556 -0.759845 -0.391205
v 0.081285 1.201725 -0.373177
v 0.185506 1.144820 -0.529155
v 0.281557 1.052410 -0.672905
v 0.365746 0.928047 -0.798903
v 0.434838 0.776510 -0.902307
v 0.486179 0.603624 -0.979143
v 0.517794 0.416031 -1.026459
v 0.528469 0.220940 -1.042435
v 0.517794 0.025850 -1.026459
v 0.486179 -0.161743 -0.979143
v 0.434838 -0.334630 -0.902307
v 0.365746 -0.486167 -0.798903
v 0.281557 -0.610529 -0.672905
v 0.185506 -0.702939 -0.529155
v 0.081285 -0.759845 -0.373177
v 0.110848 1.201725 -0.348915
v 0.243497 1.144820 -0.481563
v 0.365746 1.052410 -0.603813
v 0.472899 0.928047 -0.710965
v 0.560837 0.776510 -0.798903
v 0.626180 0.603624 -0.864247
v 0.666419 0.416031 -0.904485
v 0.680006 0.220940 -0.918072
v 0.666419 0.025850 -0.904485
v 0.626180 -0.161743 -0.864247
v 0.560837 -0.334630 -0.798903
v 0.472899 -0.486167 -0.710965
v 0.365746 -0.610529 -0.603813
v 0.243497 -0.702939 -0.481563
v 0.110848 -0.759845 -0.348915
v 0.135110 1.201725 -0.319352
v 0.291088 1.144820 -0.423573
v 0.434838 1.052410 -0.519624
v 0.560837 0.928047 -0.603813
v 0.664240 0.776510 -0.672905
v 0.741076 0.603624 -0.724245
v 0.788392 0.416031 -0.755860
v 0.804368 0.220940 -0.766536
v 0.788392 0.025850 -0.755860
v 0.741076 -0.161743 -0.724245
v 0.664240 -0.334630 -0.672905
v 0.560837 -0.486167 -0.603813
v 0.434838 -0.610529 -0.519624
v 0.291088 -0.702939 -0.423573
v 0.135110 -0.759845 -0.319352
v 0.153139 1.201725 -0.285623
v 0.326452 1.144820 -0.357412
v 0.486179 1.052410 -0.423573
v 0.626180 0.928047 -0.481563
v 0.741076 0.776510 -0.529155
v 0.826452 0.603624 -0.564519
v 0.879026 0.416031 -0.586295
v 0.896778 0.220940 -0.593649
v 0.879026 0.025850 -0.586295
v 0.826452 -0.161743 -0.564519
v 0.741076 -0.334630 -0.529155
v 0.626180 -0.486167 -0.481563
v 0.486179 -0.610529 -0.423573
v 0.326452 -0.702939 -0.357412
v 0.153138 -0.759845 -0.285623
v 0.164240 1.201725 -0.249025
v 0.348229 1.144820 -0.285623
v 0.517794 1.052410 -0.319352
v 0.666419 0.928047 -0.348915
v 0.788392 0.776510 -0.373177
v 0.879026 0.603624 -0.391205
v 0.934838 0.416031 -0.402307
v 0.953684 0.220940 -0.406056
v 0.934838 0.025850 -0.402307
v 0.879026 -0.161743 -0.391205
v 0.788392 -0.334630 -0.373177
v 0.666419 -0.486167 -0.348915
v 0.517794 -0.610529 -0.319352
v 0.348229 -0.702939 -0.285623
v 0.164240 -0.759845 -0.249025
v 0.167989 1.201725 -0.210965
v 0.355582 1.144820 -0.210965
v 0.528469 1.052410 -0.210965
v 0.680005 0.928047 -0.210965
v 0.804368 0.776510 -0.210965
v 0.896778 0.603624 -0.210965
v 0.953684 0.416031 -0.210965
v 0.972899 0.220940 -0.210965
v 0.953684 0.025850 -0.210965
v 0.896778 -0.161743 -0.210965
v 0.804368 -0.334630 -0.210965
v 0.680005 -0.486167 -0.210965
v 0.528469 -0.610529 -0.210965
v 0.355582 -0.702939 -0.210965
v 0.167989 -0.759845 -0.210965
v 0.164240 1.201725 -0.172905
v 0.348229 1.144820 -0.136307
v 0.517794 1.052410 -0.102579
v 0.666419 0.928047 -0.073015
v 0.788392 0.776510 -0.048753
v 0.879026 0.603624 -0.030725
v 0.934838 0.416031 -0.019623
v 0.953684 0.220940 -0.015875
v 0.934838 0.025850 -0.019623
v 0.879026 -0.161743 -0.030725
v 0.788392 -0.334630 -0.048753
v 0.666419 -0.486167 -0.073015
v 0.517794 -0.610529 -0.102579
v 0.348229 -0.702939 -0.136307
v 0.164240 -0.759845 -0.172905
v 0.153139 1.201725 -0.136307
v 0.326452 1.144820 -0.064518
v 0.486179 1.052410 0.001642
v 0.626180 0.928047 0.059633
v 0.741076 0.776510 0.107225
v 0.826452 0.603624 0.142588
v 0.879026 0.416031 0.164365
v 0.896778 0.220940 0.171718
v 0.879026 0.025850 0.164365
v 0.826452 -0.161743 0.142588
v 0.741076 -0.334630 0.107225
v 0.626180 -0.486167 0.059633
v 0.486179 -0.610529 0.001642
v 0.326452 -0.702939 -0.064519
v 0.153138 -0.759845 -0.136307
v 0.135110 1.201725 -0.102579
v 0.291088 1.144820 0.001642
v 0.434838 1.052410 0.097693
v 0.560836 0.928047 0.181882
v 0.664240 0.776510 0.250975
v 0.741076 0.603624 0.302315
v 0.788392 0.416031 0.333930
v 0.804368 0.220940 0.344605
v 0.788392 0.025850 0.333930
v 0.741076 -0.161743 0.302315
v 0.664240 -0.334630 0.250975
v 0.560836 -0.486167 0.181882
v 0.434838 -0.610529 0.097693
v 0.291088 -0.702939 0.001642
v 0.135110 -0.759845 -0.102579
v 0.110848 1.201725 -0.073015
v 0.243497 1.144820 0.059633
v 0.365746 1.052410 0.181882
v 0.472899 0.928047 0.289035
v 0.560836 0.776510 0.376973
v 0.626180 0.603624 0.442316
v 0.666418 0.416031 0.482555
v 0.680005 0.220940 0.496142
v 0.666418 0.025850 0.482555
v 0.626180 -0.161743 0.442316
v 0.560836 -0.334630 0.376973
v 0.472899 -0.486167 0.289035
v 0.365746 -0.610529 0.181882
v 0.243497 -0.702939 0.059633
v 0.110848 -0.759845 -0.073015
v 0.081285 1.201725 -0.048753
v 0.185506 1.144820 0.107225
v 0.281557 1.052410 0.250975
v 0.365746 0.928047 0.376973
v 0.434838 0.776510 0.480377
v 0.486179 0.603624 0.557213
v 0.517794 0.416031 0.604528
v 0.528469 0.220940 0.620504
v 0.517794 0.025850 0.604528
v 0.486179 -0.161743 0.557213
v 0.434838 -0.334630 0.480377
v 0.365746 -0.486167 0.376973
v 0.281557 -0.610529 0.250975
v 0.185506 -0.702939 0.107224
v 0.081285 -0.759845 -0.048753
v -0.027102 -0.779060 -0.210965
v 0.047556 1.201725 -0.030725
v 0.119345 1.144820 0.142588
v 0.185506 1.052410 0.302315
v 0.243497 0.928047 0.442316
v 0.291088 0.776510 0.557212
v 0.326452 0.603624 0.642588
v 0.348229 0.416031 0.695162
v 0.355582 0.220940 0.712914
v 0.348229 0.025850 0.695162
v 0.326452 -0.161743 0.642588
v 0.291088 -0.334630 0.557212
v 0.243497 -0.486167 0.442316
v 0.185506 -0.610529 0.302315
v 0.119345 -0.702939 0.142588
v 0.047556 -0.759845 -0.030725
v 0.010959 1.201725 -0.019623
v 0.047556 1.144820 0.164365
v 0.081285 1.052410 0.333930
v 0.110848 0.928047 0.482555
v 0.135110 0.776510 0.604528
v 0.153139 0.603624 0.695162
v 0.164240 0.416031 0.750975
v 0.167989 0.220940 0.769820
v 0.164240 0.025850 0.750975
v 0.153139 -0.161743 0.695162
v 0.135110 -0.334630 0.604528
v 0.110848 -0.486167 0.482555
v 0.081285 -0.610529 0.333930
v 0.047556 -0.702939 0.164365
v 0.010959 -0.759845 -0.019623
v -0.027102 1.201725 -0.015875
v -0.027101 1.144820 0.171718
v -0.027101 1.052410 0.344605
v -0.027102 0.928047 0.496142
v -0.027102 0.776510 0.620504
v -0.027101 0.603624 0.712914
v -0.027102 0.416031 0.769820
v -0.027102 0.220940 0.789035
v -0.027102 0.025850 0.769820
v -0.027101 -0.161743 0.712914
v -0.027102 -0.334630 0.620504
v -0.027102 -0.486167 0.496142
v -0.027102 -0.610529 0.344605
v -0.027102 -0.702939 0.171718
v -0.027102 -0.759845 -0.015875
v -0.027102 1.220940 -0.210965
v -0.027101 -0.161743 -1.134845
v -0.027101 -0.334630 -1.042434
v -0.027101 -0.486167 -0.918072
v -0.027101 -0.702939 -0.593648
v -0.027101 -0.759845 -0.406055
vn 0.0759 0.6326 -0.7708
vn 0.0624 -0.7715 -0.6332
vn 0.0865 0.4696 -0.8786
vn 0.0464 -0.8810 -0.4709
vn 0.0938 0.2890 -0.9527
vn 0.0286 -0.9565 -0.2902
vn 0.0975 0.0975 -0.9904
vn 0.0097 0.9951 -0.0980
vn 0.0097 -0.9951 -0.0980
vn 0.0975 -0.0975 -0.9904
vn 0.0286 0.9565 -0.2902
vn 0.0938 -0.2890 -0.9527
vn 0.0464 0.8810 -0.4709
vn 0.0865 -0.4696 -0.8786
vn 0.0624 0.7715 -0.6332
vn 0.0759 -0.6326 -0.7708
vn 0.2563 -0.4696 -0.8448
vn 0.1847 0.7715 -0.6088
vn 0.2248 -0.6326 -0.7412
vn 0.2248 0.6326 -0.7412
vn 0.1847 -0.7715 -0.6088
vn 0.2563 0.4696 -0.8448
vn 0.1374 -0.8810 -0.4528
vn 0.2779 0.2890 -0.9161
vn 0.0846 -0.9565 -0.2790
vn 0.2889 0.0975 -0.9524
vn 0.0286 0.9951 -0.0942
vn 0.0286 -0.9951 -0.0942
vn 0.2889 -0.0975 -0.9524
vn 0.0846 0.9565 -0.2790
vn 0.2779 -0.2890 -0.9161
vn 0.1374 0.8810 -0.4528
vn 0.1374 -0.9565 -0.2571
vn 0.4691 0.0975 -0.8777
vn 0.0464 0.9951 -0.0869
vn 0.0464 -0.9951 -0.0869
vn 0.4691 -0.0975 -0.8777
vn 0.1374 0.9565 -0.2571
vn 0.4513 -0.2890 -0.8443
vn 0.2230 0.8810 -0.4173
vn 0.4162 -0.4696 -0.7786
vn 0.2999 0.7715 -0.5611
vn 0.3651 -0.6326 -0.6831
vn 0.3651 0.6326 -0.6831
vn 0.2999 -0.7715 -0.5611
vn 0.4162 0.4696 -0.7786
vn 0.2230 -0.8810 -0.4173
vn 0.4513 0.2890 -0.8443
vn 0.4913 -0.6326 -0.5987
vn 0.4913 0.6326 -0.5987
vn 0.4036 -0.7715 -0.4918
vn 0.5601 0.4696 -0.6825
vn 0.3002 -0.8810 -0.3658
vn 0.6073 0.2890 -0.7400
vn 0.1850 -0.9565 -0.2254
vn 0.6314 0.0976 -0.7693
vn 0.0625 0.9951 -0.0761
vn 0.0625 -0.9951 -0.0761
vn 0.6314 -0.0976 -0.7693
vn 0.1850 0.9565 -0.2254
vn 0.6073 -0.2890 -0.7400
vn 0.3002 0.8810 -0.3658
vn 0.5601 -0.4696 -0.6825
vn 0.4036 0.7715 -0.4918
vn 0.0761 0.9951 -0.0625
vn 0.0761 -0.9951 -0.0625
vn 0.7693 -0.0976 -0.6314
vn 0.2254 0.9565 -0.1850
vn 0.7400 -0.2890 -0.6073
vn 0.3658 0.8810 -0.3002
vn 0.6825 -0.4696 -0.5601
vn 0.4918 0.7715 -0.4036
vn 0.5987 -0.6326 -0.4913
vn 0.5987 0.6326 -0.4913
vn 0.4918 -0.7715 -0.4036
vn 0.6825 0.4696 -0.5601
vn 0.3658 -0.8810 -0.3002
vn 0.7400 0.2890 -0.6073
vn 0.2254 -0.9565 -0.1850
vn 0.7693 0.0976 -0.6314
vn 0.6831 0.6326 -0.3651
vn 0.5611 -0.7715 -0.2999
vn 0.7786 0.4696 -0.4162
vn 0.4173 -0.8810 -0.2230
vn 0.8443 0.2890 -0.4513
vn 0.2571 -0.9565 -0.1374
vn 0.8777 0.0976 -0.4691
vn 0.0869 0.9951 -0.0464
vn 0.0869 -0.9951 -0.0464
vn 0.8777 -0.0976 -0.4691
vn 0.2571 0.9565 -0.1374
vn 0.8443 -0.2890 -0.4513
vn 0.4173 0.8810 -0.2231
vn 0.7786 -0.4696 -0.4162
vn 0.5611 0.7715 -0.2999
vn 0.6831 -0.6326 -0.3651
vn 0.9524 -0.0976 -0.2889
vn 0.2790 0.9565 -0.0846
vn 0.9161 -0.2890 -0.2779
vn 0.4528 0.8810 -0.1374
vn 0.8448 -0.4696 -0.2563
vn 0.6088 0.7715 -0.1847
vn 0.7412 -0.6326 -0.2248
vn 0.7412 0.6326 -0.2248
vn 0.6088 -0.7715 -0.1847
vn 0.8448 0.4696 -0.2563
vn 0.4528 -0.8810 -0.1374
vn 0.9161 0.2890 -0.2779
vn 0.2790 -0.9565 -0.0846
vn 0.9524 0.0976 -0.2889
vn 0.0942 0.9951 -0.0286
vn 0.0942 -0.9951 -0.0286
vn 0.6332 -0.7715 -0.0624
vn 0.8786 0.4696 -0.0865
vn 0.4709 -0.8810 -0.0464
vn 0.9527 0.2890 -0.0938
vn 0.2902 -0.9565 -0.0286
vn 0.9904 0.0976 -0.0975
vn 0.0980 0.9951 -0.0097
vn 0.0980 -0.9951 -0.0097
vn 0.9904 -0.0976 -0.0975
vn 0.2902 0.9565 -0.0286
vn 0.9527 -0.2890 -0.0938
vn 0.4709 0.8810 -0.0464
vn 0.8786 -0.4696 -0.0865
vn 0.6332 0.7715 -0.0624
vn 0.7708 -0.6326 -0.0759
vn 0.7708 0.6326 -0.0759
vn 0.2902 0.9565 0.0286
vn 0.9527 -0.2890 0.0938
vn 0.4709 0.8810 0.0464
vn 0.8786 -0.4696 0.0865
vn 0.6332 0.7715 0.0624
vn 0.7708 -0.6326 0.0759
vn 0.7708 0.6326 0.0759
vn 0.6332 -0.7715 0.0624
vn 0.8786 0.4696 0.0865
vn 0.4709 -0.8810 0.0464
vn 0.9527 0.2890 0.0938
vn 0.2902 -0.9565 0.0286
vn 0.9904 0.0976 0.0975
vn 0.0980 0.9951 0.0097
vn 0.0980 -0.9951 0.0097
vn 0.9904 -0.0976 0.0975
vn 0.8448 0.4696 0.2563
vn 0.4528 -0.8810 0.1374
vn 0.9161 0.2890 0.2779
vn 0.2790 -0.9565 0.0846
vn 0.9524 0.0976 0.2889
vn 0.0942 0.9951 0.0286
vn 0.0942 -0.9951 0.0286
vn 0.9524 -0.0976 0.2889
vn 0.2790 0.9565 0.0846
vn 0.9161 -0.2890 0.2779
vn 0.4528 0.8810 0.1374
vn 0.8448 -0.4696 0.2563
vn 0.6088 0.7715 0.1847
vn 0.7412 -0.6326 0.2248
vn 0.7412 0.6326 0.2248
vn 0.6088 -0.7715 0.1847
vn 0.8443 -0.2890 0.4513
vn 0.4173 0.8810 0.2230
vn 0.7786 -0.4696 0.4162
vn 0.5611 0.7715 0.2999
vn 0.6831 -0.6326 0.3651
vn 0.6831 0.6326 0.3651
vn 0.5611 -0.7715 0.2999
vn 0.7786 0.4696 0.4162
vn 0.4173 -0.8810 0.2231
vn 0.8443 0.2890 0.4513
vn 0.2571 -0.9565 0.1374
vn 0.8777 0.0976 0.4691
vn 0.0869 0.9951 0.0464
vn 0.0869 -0.9951 0.0464
vn 0.8777 -0.0976 0.4691
vn 0.2571 0.9565 0.1374
vn 0.3658 -0.8810 0.3002
vn 0.7400 0.2890 0.6073
vn 0.2254 -0.9565 0.1850
vn 0.7693 0.0976 0.6314
vn 0.0761 0.9951 0.0625
vn 0.0761 -0.9951 0.0625
vn 0.7693 -0.0976 0.6314
vn 0.2254 0.9565 0.1850
vn 0.7400 -0.2890 0.6073
vn 0.3658 0.8810 0.3002
vn 0.6825 -0.4696 0.5601
vn 0.4918 0.7715 0.4036
vn 0.5987 -0.6326 0.4913
vn 0.5987 0.6326 0.4913
vn 0.4918 -0.7715 0.4036
vn 0.6825 0.4696 0.5601
vn 0.5601 -0.4696 0.6825
vn 0.4036 0.7715 0.4918
vn 0.4913 -0.6326 0.5987
vn 0.4913 0.6326 0.5987
vn 0.4036 -0.7715 0.4918
vn 0.5601 0.4696 0.6825
vn 0.3002 -0.8810 0.3658
vn 0.6073 0.2890 0.7400
vn 0.1850 -0.9565 0.2254
vn 0.6314 0.0976 0.7693
vn 0.0625 0.9951 0.0761
vn 0.0625 -0.9951 0.0761
vn 0.6314 -0.0976 0.7693
vn 0.1850 0.9565 0.2254
vn 0.6073 -0.2890 0.7400
vn 0.3002 0.8810 0.3658
vn 0.1374 -0.9565 0.2571
vn 0.4691 0.0976 0.8777
vn 0.0464 0.9951 0.0869
vn 0.0464 -0.9951 0.0869
vn 0.4691 -0.0976 0.8777
vn 0.1374 0.9565 0.2571
vn 0.4513 -0.2890 0.8443
vn 0.2230 0.8810 0.4173
vn 0.4162 -0.4696 0.7786
vn 0.2999 0.7715 0.5611
vn 0.3651 -0.6326 0.6831
vn 0.3651 0.6326 0.6831
vn 0.2999 -0.7715 0.5611
vn 0.4162 0.4696 0.7786
vn 0.2231 -0.8810 0.4173
vn 0.4513 0.2890 0.8443
vn 0.1847 0.7715 0.6088
vn 0.2248 -0.6326 0.7412
vn 0.2248 0.6326 0.7412
vn 0.1847 -0.7715 0.6088
vn 0.2563 0.4696 0.8448
vn 0.1374 -0.8810 0.4528
vn 0.2779 0.2890 0.9161
vn 0.0846 -0.9565 0.2790
vn 0.2889 0.0976 0.9524
vn 0.0286 0.9951 0.0942
vn 0.0286 -0.9951 0.0942
vn 0.2889 -0.0976 0.9524
vn 0.0846 0.9565 0.2790
vn 0.2779 -0.2890 0.9161
vn 0.1374 0.8810 0.4528
vn 0.2563 -0.4696 0.8448
vn 0.0975 0.0976 0.9904
vn 0.0097 0.9951 0.0980
vn 0.0097 -0.9951 0.0980
vn 0.0975 -0.0976 0.9904
vn 0.0286 0.9565 0.2902
vn 0.0938 -0.2890 0.9527
vn 0.0464 0.8810 0.4709
vn 0.0865 -0.4696 0.8786
vn 0.0624 0.7715 0.6332
vn 0.0759 -0.6326 0.7708
vn 0.0759 0.6326 0.7708
vn 0.0624 -0.7715 0.6332
vn 0.0865 0.4696 0.8786
vn 0.0464 -0.8810 0.4709
vn 0.0938 0.2890 0.9527
vn 0.0286 -0.9565 0.2902
usemtl None
s off
f 5//1 4//1 14//1 15//1
f 10//2 255//2 22//2 23//2
f 6//3 5//3 15//3 16//3
f 256//4 10//4 23//4 24//4
f 7//5 6//5 16//5 17//5
f 257//6 256//6 24//6 25//6
f 8//7 7//7 17//7 18//7
f 1//8 252//8 11//8
f 206//9 257//9 25//9
f 9//10 8//10 18//10 19//10
f 2//11 1//11 11//11 12//11
f 253//12 9//12 19//12 20//12
f 3//13 2//13 12//13 13//13
f 254//14 253//14 20//14 21//14
f 4//15 3//15 13//15 14//15
f 255//16 254//16 21//16 22//16
f 21//17 20//17 35//17 36//17
f 14//18 13//18 28//18 29//18
f 22//19 21//19 36//19 37//19
f 15//20 14//20 29//20 30//20
f 23//21 22//21 37//21 38//21
f 16//22 15//22 30//22 31//22
f 24//23 23//23 38//23 39//23
f 17//24 16//24 31//24 32//24
f 25//25 24//25 39//25 40//25
f 18//26 17//26 32//26 33//26
f 11//27 252//27 26//27
f 206//28 25//28 40//28
f 19//29 18//29 33//29 34//29
f 12//30 11//30 26//30 27//30
f 20//31 19//31 34//31 35//31
f 13//32 12//32 27//32 28//32
f 40//33 39//33 54//33 55//33
f 33//34 32//34 47//34 48//34
f 26//35 252//35 41//35
f 206//36 40//36 55//36
f 34//37 33//37 48//37 49//37
f 27//38 26//38 41//38 42//38
f 35//39 34//39 49//39 50//39
f 28//40 27//40 42//40 43//40
f 36//41 35//41 50//41 51//41
f 29//42 28//42 43//42 44//42
f 37//43 36//43 51//43 52//43
f 30//44 29//44 44//44 45//44
f 38//45 37//45 52//45 53//45
f 31//46 30//46 45//46 46//46
f 39//47 38//47 53//47 54//47
f 32//48 31//48 46//48 47//48
f 52//49 51//49 66//49 67//49
f 45//50 44//50 59//50 60//50
f 53//51 52//51 67//51 68//51
f 46//52 45//52 60//52 61//52
f 54//53 53//53 68//53 69//53
f 47//54 46//54 61//54 62//54
f 55//55 54//55 69//55 70//55
f 48//56 47//56 62//56 63//56
f 41//57 252//57 56//57
f 206//58 55//58 70//58
f 49//59 48//59 63//59 64//59
f 42//60 41//60 56//60 57//60
f 50//61 49//61 64//61 65//61
f 43//62 42//62 57//62 58//62
f 51//63 50//63 65//63 66//63
f 44//64 43//64 58//64 59//64
f 56//65 252//65 71//65
f 206//66 70//66 85//66
f 64//67 63//67 78//67 79//67
f 57//68 56//68 71//68 72//68
f 65//69 64//69 79//69 80//69
f 58//70 57//70 72//70 73//70
f 66//71 65//71 80//71 81//71
f 59//72 58//72 73//72 74//72
f 67//73 66//73 81//73 82//73
f 60//74 59//74 74//74 75//74
f 68//75 67//75 82//75 83//75
f 61//76 60//76 75//76 76//76
f 69//77 68//77 83//77 84//77
f 62//78 61//78 76//78 77//78
f 70//79 69//79 84//79 85//79
f 63//80 62//80 77//80 78//80
f 75//81 74//81 89//81 90//81
f 83//82 82//82 97//82 98//82
f 76//83 75//83 90//83 91//83
f 84//84 83//84 98//84 99//84
f 77//85 76//85 91//85 92//85
f 85//86 84//86 99//86 100//86
f 78//87 77//87 92//87 93//87
f 71//88 252//88 86//88
f 206//89 85//89 100//89
f 79//90 78//90 93//90 94//90
f 72//91 71//91 86//91 87//91
f 80//92 79//92 94//92 95//92
f 73//93 72//93 87//93 88//93
f 81//94 80//94 95//94 96//94
f 74//95 73//95 88//95 89//95
f 82//96 81//96 96//96 97//96
f 94//97 93//97 108//97 109//97
f 87//98 86//98 101//98 102//98
f 95//99 94//99 109//99 110//99
f 88//100 87//100 102//100 103//100
f 96//101 95//101 110//101 111//101
f 89//102 88//102 103//102 104//102
f 97//103 96//103 111//103 112//103
f 90//104 89//104 104//104 105//104
f 98//105 97//105 112//105 113//105
f 91//106 90//106 105//106 106//106
f 99//107 98//107 113//107 114//107
f 92//108 91//108 106//108 107//108
f 100//109 99//109 114//109 115//109
f 93//110 92//110 107//110 108//110
f 86//111 252//111 101//111
f 206//112 100//112 115//112
f 113//113 112//113 127//113 128//113
f 106//114 105//114 120//114 121//114
f 114//115 113//115 128//115 129//115
f 107//116 106//116 121//116 122//116
f 115//117 114//117 129//117 130//117
f 108//118 107//118 122//118 123//118
f 101//119 252//119 116//119
f 206//120 115//120 130//120
f 109//121 108//121 123//121 124//121
f 102//122 101//122 116//122 117//122
f 110//123 109//123 124//123 125//123
f 103//124 102//124 117//124 118//124
f 111//125 110//125 125//125 126//125
f 104//126 103//126 118//126 119//126
f 112//127 111//127 126//127 127//127
f 105//128 104//128 119//128 120//128
f 117//129 116//129 131//129 132//129
f 125//130 124//130 139//130 140//130
f 118//131 117//131 132//131 133//131
f 126//132 125//132 140//132 141//132
f 119//133 118//133 133//133 134//133
f 127//134 126//134 141//134 142//134
f 120//135 119//135 134//135 135//135
f 128//136 127//136 142//136 143//136
f 121//137 120//137 135//137 136//137
f 129//138 128//138 143//138 144//138
f 122//139 121//139 136//139 137//139
f 130//140 129//140 144//140 145//140
f 123//141 122//141 137//141 138//141
f 116//142 252//142 131//142
f 206//143 130//143 145//143
f 124//144 123//144 138//144 139//144
f 136//145 135//145 150//145 151//145
f 144//146 143//146 158//146 159//146
f 137//147 136//147 151//147 152//147
f 145//148 144//148 159//148 160//148
f 138//149 137//149 152//149 153//149
f 131//150 252//150 146//150
f 206//151 145//151 160//151
f 139//152 138//152 153//152 154//152
f 132//153 131//153 146//153 147//153
f 140//154 139//154 154//154 155//154
f 133//155 132//155 147//155 148//155
f 141//156 140//156 155//156 156//156
f 134//157 133//157 148//157 149//157
f 142//158 141//158 156//158 157//158
f 135//159 134//159 149//159 150//159
f 143//160 142//160 157//160 158//160
f 155//161 154//161 169//161 170//161
f 148//162 147//162 162//162 163//162
f 156//163 155//163 170//163 171//163
f 149//164 148//164 163//164 164//164
f 157//165 156//165 171//165 172//165
f 150//166 149//166 164//166 165//166
f 158//167 157//167 172//167 173//167
f 151//168 150//168 165//168 166//168
f 159//169 158//169 173//169 174//169
f 152//170 151//170 166//170 167//170
f 160//171 159//171 174//171 175//171
f 153//172 152//172 167//172 168//172
f 146//173 252//173 161//173
f 206//174 160//174 175//174
f 154//175 153//175 168//175 169//175
f 147//176 146//176 161//176 162//176
f 174//177 173//177 188//177 189//177
f 167//178 166//178 181//178 182//178
f 175//179 174//179 189//179 190//179
f 168//180 167//180 182//180 183//180
f 161//181 252//181 176//181
f 206//182 175//182 190//182
f 169//183 168//183 183//183 184//183
f 162//184 161//184 176//184 177//184
f 170//185 169//185 184//185 185//185
f 163//186 162//186 177//186 178//186
f 171//187 170//187 185//187 186//187
f 164//188 163//188 178//188 179//188
f 172//189 171//189 186//189 187//189
f 165//190 164//190 179//190 180//190
f 173//191 172//191 187//191 188//191
f 166//192 165//192 180//192 181//192
f 186//193 185//193 200//193 201//193
f 179//194 178//194 193//194 194//194
f 187//195 186//195 201//195 202//195
f 180//196 179//196 194//196 195//196
f 188//197 187//197 202//197 203//197
f 181//198 180//198 195//198 196//198
f 189//199 188//199 203//199 204//199
f 182//200 181//200 196//200 197//200
f 190//201 189//201 204//201 205//201
f 183//202 182//202 197//202 198//202
f 176//203 252//203 191//203
f 206//204 190//204 205//204
f 184//205 183//205 198//205 199//205
f 177//206 176//206 191//206 192//206
f 185//207 184//207 199//207 200//207
f 178//208 177//208 192//208 193//208
f 205//209 204//209 220//209 221//209
f 198//210 197//210 213//210 214//210
f 191//211 252//211 207//211
f 206//212 205//212 221//212
f 199//213 198//213 214//213 215//213
f 192//214 191//214 207//214 208//214
f 200//215 199//215 215//215 216//215
f 193//216 192//216 208//216 209//216
f 201//217 200//217 216//217 217//217
f 194//218 193//218 209//218 210//218
f 202//219 201//219 217//219 218//219
f 195//220 194//220 210//220 211//220
f 203//221 202//221 218//221 219//221
f 196//222 195//222 211//222 212//222
f 204//223 203//223 219//223 220//223
f 197//224 196//224 212//224 213//224
f 210//225 209//225 224//225 225//225
f 218//226 217//226 232//226 233//226
f 211//227 210//227 225//227 226//227
f 219//228 218//228 233//228 234//228
f 212//229 211//229 226//229 227//229
f 220//230 219//230 234//230 235//230
f 213//231 212//231 227//231 228//231
f 221//232 220//232 235//232 236//232
f 214//233 213//233 228//233 229//233
f 207//234 252//234 222//234
f 206//235 221//235 236//235
f 215//236 214//236 229//236 230//236
f 208//237 207//237 222//237 223//237
f 216//238 215//238 230//238 231//238
f 209//239 208//239 223//239 224//239
f 217//240 216//240 231//240 232//240
f 229//241 228//241 243//241 244//241
f 222//242 252//242 237//242
f 206//243 236//243 251//243
f 230//244 229//244 244//244 245//244
f 223//245 222//245 237//245 238//245
f 231//246 230//246 245//246 246//246
f 224//247 223//247 238//247 239//247
f 232//248 231//248 246//248 247//248
f 225//249 224//249 239//249 240//249
f 233//250 232//250 247//250 248//250
f 226//251 225//251 240//251 241//251
f 234//252 233//252 248//252 249//252
f 227//253 226//253 241//253 242//253
f 235//254 234//254 249//254 250//254
f 228//255 227//255 242//255 243//255
f 236//256 235//256 250//256 251//256
